solid macan.stl
 facet normal 0.0 0.0 -1.0
  outer loop
   vertex 465.0 1920.0 0.0
   vertex 0.0 0.0 0.0
   vertex 0.0 1920.0 0.0
  endloop
 endfacet
 facet normal 0.0 0.0 -1.0
  outer loop
   vertex 0.0 0.0 0.0
   vertex 465.0 1920.0 0.0
   vertex 465.0 0.0 0.0
  endloop
 endfacet
 facet normal 0.0 0.0 1.0
  outer loop
   vertex 965.0 0.0 1620.0
   vertex 2339.0547 1920.0 1620.0
   vertex 965.0 1920.0 1620.0
  endloop
 endfacet
 facet normal 0.0 0.0 1.0
  outer loop
   vertex 2339.0547 1920.0 1620.0
   vertex 965.0 0.0 1620.0
   vertex 2339.0547 0.0 1620.0
  endloop
 endfacet
 facet normal -1.0 0.0 0.0
  outer loop
   vertex 0.0 1920.0 917.8182
   vertex 0.0 0.0 0.0
   vertex 0.0 0.0 917.8182
  endloop
 endfacet
 facet normal -1.0 0.0 0.0
  outer loop
   vertex 0.0 0.0 0.0
   vertex 0.0 1920.0 917.8182
   vertex 0.0 1920.0 0.0
  endloop
 endfacet
 facet normal 1.0 0.0 0.0
  outer loop
   vertex 4680.0 1920.0 0.0
   vertex 4680.0 0.0 917.8182
   vertex 4680.0 0.0 0.0
  endloop
 endfacet
 facet normal 1.0 0.0 0.0
  outer loop
   vertex 4680.0 0.0 917.8182
   vertex 4680.0 1920.0 0.0
   vertex 4680.0 1920.0 917.8182
  endloop
 endfacet
 facet normal 0.0 1.0 0.0
  outer loop
   vertex 482.0371 0.0 129.4095
   vertex 467.5 0.0 0.0
   vertex 465.0 0.0 0.0
  endloop
 endfacet
 facet normal 0.0 1.0 0.0
  outer loop
   vertex 467.5 0.0 0.0
   vertex 482.0371 0.0 129.4095
   vertex 484.5371 0.0 129.4095
  endloop
 endfacet
 facet normal 0.0 1.0 0.0
  outer loop
   vertex 484.5371 0.0 129.4095
   vertex 482.0371 0.0 129.4095
   vertex 531.9873 0.0 250.0
  endloop
 endfacet
 facet normal 0.0 1.0 0.0
  outer loop
   vertex 484.5371 0.0 129.4095
   vertex 531.9873 0.0 250.0
   vertex 534.4873 0.0 250.0
  endloop
 endfacet
 facet normal 0.0 1.0 0.0
  outer loop
   vertex 534.4873 0.0 250.0
   vertex 531.9873 0.0 250.0
   vertex 611.4466 0.0 353.5534
  endloop
 endfacet
 facet normal 0.0 1.0 0.0
  outer loop
   vertex 534.4873 0.0 250.0
   vertex 611.4466 0.0 353.5534
   vertex 613.9466 0.0 353.5534
  endloop
 endfacet
 facet normal 0.0 1.0 0.0
  outer loop
   vertex 613.9466 0.0 353.5534
   vertex 611.4466 0.0 353.5534
   vertex 715.0 0.0 433.0127
  endloop
 endfacet
 facet normal 0.0 1.0 0.0
  outer loop
   vertex 613.9466 0.0 353.5534
   vertex 715.0 0.0 433.0127
   vertex 717.5 0.0 433.0127
  endloop
 endfacet
 facet normal 0.0 1.0 0.0
  outer loop
   vertex 717.5 0.0 433.0127
   vertex 715.0 0.0 433.0127
   vertex 835.5905 0.0 482.96290000000005
  endloop
 endfacet
 facet normal 0.0 1.0 0.0
  outer loop
   vertex 717.5 0.0 433.0127
   vertex 835.5905 0.0 482.96290000000005
   vertex 838.0905 0.0 482.96290000000005
  endloop
 endfacet
 facet normal 0.0 1.0 0.0
  outer loop
   vertex 838.0905 0.0 482.96290000000005
   vertex 835.5905 0.0 482.96290000000005
   vertex 965.0 0.0 500.0
  endloop
 endfacet
 facet normal 0.0 1.0 0.0
  outer loop
   vertex 838.0905 0.0 482.96290000000005
   vertex 965.0 0.0 500.0
   vertex 966.25 0.0 499.83540000000005
  endloop
 endfacet
 facet normal 0.0 1.0 0.0
  outer loop
   vertex 0.0 1920.0 917.8182
   vertex 465.0 1920.0 0.0
   vertex 0.0 1920.0 0.0
  endloop
 endfacet
 facet normal 0.0 1.0 0.0
  outer loop
   vertex 465.0 1920.0 0.0
   vertex 0.0 1920.0 917.8182
   vertex 482.0371 1920.0 129.4095
  endloop
 endfacet
 facet normal 0.0 1.0 0.0
  outer loop
   vertex 482.0371 1920.0 129.4095
   vertex 0.0 1920.0 917.8182
   vertex 531.9873 1920.0 250.0
  endloop
 endfacet
 facet normal 0.0 1.0 0.0
  outer loop
   vertex 531.9873 1920.0 250.0
   vertex 0.0 1920.0 917.8182
   vertex 611.4466 1920.0 353.5534
  endloop
 endfacet
 facet normal 0.0 1.0 0.0
  outer loop
   vertex 611.4466 1920.0 353.5534
   vertex 0.0 1920.0 917.8182
   vertex 715.0 1920.0 433.0127
  endloop
 endfacet
 facet normal 0.0 1.0 0.0
  outer loop
   vertex 715.0 1920.0 433.0127
   vertex 0.0 1920.0 917.8182
   vertex 835.5905 1920.0 482.96290000000005
  endloop
 endfacet
 facet normal 0.0 1.0 0.0
  outer loop
   vertex 835.5905 1920.0 482.96290000000005
   vertex 0.0 1920.0 917.8182
   vertex 965.0 1920.0 500.0
  endloop
 endfacet
 facet normal 0.0 1.0 0.0
  outer loop
   vertex 965.0 1920.0 500.0
   vertex 0.0 1920.0 917.8182
   vertex 3715.0 1920.0 500.0
  endloop
 endfacet
 facet normal 0.0 1.0 0.0
  outer loop
   vertex 4215.0 1920.0 0.0
   vertex 4680.0 1920.0 917.8182
   vertex 4680.0 1920.0 0.0
  endloop
 endfacet
 facet normal 0.0 1.0 0.0
  outer loop
   vertex 4680.0 1920.0 917.8182
   vertex 4215.0 1920.0 0.0
   vertex 4197.9629 1920.0 129.4095
  endloop
 endfacet
 facet normal 0.0 1.0 0.0
  outer loop
   vertex 4680.0 1920.0 917.8182
   vertex 4197.9629 1920.0 129.4095
   vertex 4148.0127 1920.0 250.0
  endloop
 endfacet
 facet normal 0.0 1.0 0.0
  outer loop
   vertex 4680.0 1920.0 917.8182
   vertex 4148.0127 1920.0 250.0
   vertex 4068.5534000000002 1920.0 353.5534
  endloop
 endfacet
 facet normal 0.0 1.0 0.0
  outer loop
   vertex 4680.0 1920.0 917.8182
   vertex 4068.5534000000002 1920.0 353.5534
   vertex 3965.0 1920.0 433.0127
  endloop
 endfacet
 facet normal 0.0 1.0 0.0
  outer loop
   vertex 4680.0 1920.0 917.8182
   vertex 3965.0 1920.0 433.0127
   vertex 3844.4095 1920.0 482.96290000000005
  endloop
 endfacet
 facet normal 0.0 1.0 0.0
  outer loop
   vertex 4680.0 1920.0 917.8182
   vertex 3844.4095 1920.0 482.96290000000005
   vertex 3715.0 1920.0 500.0
  endloop
 endfacet
 facet normal 0.0 1.0 0.0
  outer loop
   vertex 4680.0 1920.0 917.8182
   vertex 3715.0 1920.0 500.0
   vertex 0.0 1920.0 917.8182
  endloop
 endfacet
 facet normal 0.0 1.0 0.0
  outer loop
   vertex 4680.0 1920.0 917.8182
   vertex 0.0 1920.0 917.8182
   vertex 2339.0547 1920.0 917.8182
  endloop
 endfacet
 facet normal 0.0 1.0 0.0
  outer loop
   vertex 2339.0547 1920.0 917.8182
   vertex 0.0 1920.0 917.8182
   vertex 965.0 1920.0 1620.0
  endloop
 endfacet
 facet normal 0.0 1.0 0.0
  outer loop
   vertex 2339.0547 1920.0 917.8182
   vertex 965.0 1920.0 1620.0
   vertex 2339.0547 1920.0 1620.0
  endloop
 endfacet
 facet normal 0.0 1.0 0.0
  outer loop
   vertex 1447.9629 1920.0 129.4095
   vertex 3215.0 1920.0 0.0
   vertex 1465.0 1920.0 0.0
  endloop
 endfacet
 facet normal 0.0 1.0 0.0
  outer loop
   vertex 3215.0 1920.0 0.0
   vertex 1447.9629 1920.0 129.4095
   vertex 3232.0371 1920.0 129.4095
  endloop
 endfacet
 facet normal 0.0 1.0 0.0
  outer loop
   vertex 3232.0371 1920.0 129.4095
   vertex 1447.9629 1920.0 129.4095
   vertex 1398.0127 1920.0 250.0
  endloop
 endfacet
 facet normal 0.0 1.0 0.0
  outer loop
   vertex 3232.0371 1920.0 129.4095
   vertex 1398.0127 1920.0 250.0
   vertex 3281.9873000000002 1920.0 250.0
  endloop
 endfacet
 facet normal 0.0 1.0 0.0
  outer loop
   vertex 3281.9873000000002 1920.0 250.0
   vertex 1398.0127 1920.0 250.0
   vertex 1318.5534 1920.0 353.5534
  endloop
 endfacet
 facet normal 0.0 1.0 0.0
  outer loop
   vertex 3281.9873000000002 1920.0 250.0
   vertex 1318.5534 1920.0 353.5534
   vertex 3361.4466 1920.0 353.5534
  endloop
 endfacet
 facet normal 0.0 1.0 0.0
  outer loop
   vertex 3361.4466 1920.0 353.5534
   vertex 1318.5534 1920.0 353.5534
   vertex 1215.0 1920.0 433.0127
  endloop
 endfacet
 facet normal 0.0 1.0 0.0
  outer loop
   vertex 3361.4466 1920.0 353.5534
   vertex 1215.0 1920.0 433.0127
   vertex 3465.0 1920.0 433.0127
  endloop
 endfacet
 facet normal 0.0 1.0 0.0
  outer loop
   vertex 3465.0 1920.0 433.0127
   vertex 1215.0 1920.0 433.0127
   vertex 1094.4095 1920.0 482.96290000000005
  endloop
 endfacet
 facet normal 0.0 1.0 0.0
  outer loop
   vertex 3465.0 1920.0 433.0127
   vertex 1094.4095 1920.0 482.96290000000005
   vertex 3585.5905000000002 1920.0 482.96290000000005
  endloop
 endfacet
 facet normal 0.0 1.0 0.0
  outer loop
   vertex 3585.5905000000002 1920.0 482.96290000000005
   vertex 1094.4095 1920.0 482.96290000000005
   vertex 965.0 1920.0 500.0
  endloop
 endfacet
 facet normal 0.0 1.0 0.0
  outer loop
   vertex 3585.5905000000002 1920.0 482.96290000000005
   vertex 965.0 1920.0 500.0
   vertex 3715.0 1920.0 500.0
  endloop
 endfacet
 facet normal 0.9239 0.0 -0.38270000000000004
  outer loop
   vertex 3232.0371 1920.0 129.4095
   vertex 3281.9873000000002 0.0 250.0
   vertex 3232.0371 0.0 129.4095
  endloop
 endfacet
 facet normal 0.9239 0.0 -0.38270000000000004
  outer loop
   vertex 3281.9873000000002 0.0 250.0
   vertex 3232.0371 1920.0 129.4095
   vertex 3281.9873000000002 1920.0 250.0
  endloop
 endfacet
 facet normal 0.1305 0.0 -0.9914000000000001
  outer loop
   vertex 3715.0 1920.0 500.0
   vertex 3585.5905000000002 0.0 482.96290000000005
   vertex 3585.5905000000002 1920.0 482.96290000000005
  endloop
 endfacet
 facet normal 0.1305 0.0 -0.9914000000000001
  outer loop
   vertex 3585.5905000000002 0.0 482.96290000000005
   vertex 3715.0 1920.0 500.0
   vertex 3715.0 0.0 500.0
  endloop
 endfacet
 facet normal -0.38270000000000004 0.0 -0.9239
  outer loop
   vertex 3965.0 1920.0 433.0127
   vertex 3844.4095 0.0 482.96290000000005
   vertex 3844.4095 1920.0 482.96290000000005
  endloop
 endfacet
 facet normal -0.38270000000000004 0.0 -0.9239
  outer loop
   vertex 3844.4095 0.0 482.96290000000005
   vertex 3965.0 1920.0 433.0127
   vertex 3965.0 0.0 433.0127
  endloop
 endfacet
 facet normal -0.9914000000000001 0.0 -0.1305
  outer loop
   vertex 4197.9629 1920.0 129.4095
   vertex 4215.0 0.0 0.0
   vertex 4197.9629 0.0 129.4095
  endloop
 endfacet
 facet normal -0.9914000000000001 0.0 -0.1305
  outer loop
   vertex 4215.0 0.0 0.0
   vertex 4197.9629 1920.0 129.4095
   vertex 4215.0 1920.0 0.0
  endloop
 endfacet
 facet normal -0.9239 0.0 -0.38270000000000004
  outer loop
   vertex 4148.0127 1920.0 250.0
   vertex 4197.9629 0.0 129.4095
   vertex 4148.0127 0.0 250.0
  endloop
 endfacet
 facet normal -0.9239 0.0 -0.38270000000000004
  outer loop
   vertex 4197.9629 0.0 129.4095
   vertex 4148.0127 1920.0 250.0
   vertex 4197.9629 1920.0 129.4095
  endloop
 endfacet
 facet normal -0.7934 0.0 -0.6088
  outer loop
   vertex 4068.5534000000002 1920.0 353.5534
   vertex 4148.0127 0.0 250.0
   vertex 4068.5534000000002 0.0 353.5534
  endloop
 endfacet
 facet normal -0.7934 0.0 -0.6088
  outer loop
   vertex 4148.0127 0.0 250.0
   vertex 4068.5534000000002 1920.0 353.5534
   vertex 4148.0127 1920.0 250.0
  endloop
 endfacet
 facet normal -0.6088 0.0 -0.7934
  outer loop
   vertex 4068.5534000000002 1920.0 353.5534
   vertex 3965.0 0.0 433.0127
   vertex 3965.0 1920.0 433.0127
  endloop
 endfacet
 facet normal -0.6088 0.0 -0.7934
  outer loop
   vertex 3965.0 0.0 433.0127
   vertex 4068.5534000000002 1920.0 353.5534
   vertex 4068.5534000000002 0.0 353.5534
  endloop
 endfacet
 facet normal -0.1305 0.0 -0.9914000000000001
  outer loop
   vertex 3844.4095 1920.0 482.96290000000005
   vertex 3715.0 0.0 500.0
   vertex 3715.0 1920.0 500.0
  endloop
 endfacet
 facet normal -0.1305 0.0 -0.9914000000000001
  outer loop
   vertex 3715.0 0.0 500.0
   vertex 3844.4095 1920.0 482.96290000000005
   vertex 3844.4095 0.0 482.96290000000005
  endloop
 endfacet
 facet normal 0.38270000000000004 0.0 -0.9239
  outer loop
   vertex 3585.5905000000002 1920.0 482.96290000000005
   vertex 3465.0 0.0 433.0127
   vertex 3465.0 1920.0 433.0127
  endloop
 endfacet
 facet normal 0.38270000000000004 0.0 -0.9239
  outer loop
   vertex 3465.0 0.0 433.0127
   vertex 3585.5905000000002 1920.0 482.96290000000005
   vertex 3585.5905000000002 0.0 482.96290000000005
  endloop
 endfacet
 facet normal 0.6088 0.0 -0.7934
  outer loop
   vertex 3465.0 1920.0 433.0127
   vertex 3361.4466 0.0 353.5534
   vertex 3361.4466 1920.0 353.5534
  endloop
 endfacet
 facet normal 0.6088 0.0 -0.7934
  outer loop
   vertex 3361.4466 0.0 353.5534
   vertex 3465.0 1920.0 433.0127
   vertex 3465.0 0.0 433.0127
  endloop
 endfacet
 facet normal 0.7934 0.0 -0.6088
  outer loop
   vertex 3281.9873000000002 1920.0 250.0
   vertex 3361.4466 0.0 353.5534
   vertex 3281.9873000000002 0.0 250.0
  endloop
 endfacet
 facet normal 0.7934 0.0 -0.6088
  outer loop
   vertex 3361.4466 0.0 353.5534
   vertex 3281.9873000000002 1920.0 250.0
   vertex 3361.4466 1920.0 353.5534
  endloop
 endfacet
 facet normal 0.9914000000000001 0.0 -0.1305
  outer loop
   vertex 3215.0 1920.0 0.0
   vertex 3232.0371 0.0 129.4095
   vertex 3215.0 0.0 0.0
  endloop
 endfacet
 facet normal 0.9914000000000001 0.0 -0.1305
  outer loop
   vertex 3232.0371 0.0 129.4095
   vertex 3215.0 1920.0 0.0
   vertex 3232.0371 1920.0 129.4095
  endloop
 endfacet
 facet normal 0.0 0.0 -1.0
  outer loop
   vertex 4680.0 1920.0 0.0
   vertex 4215.0 0.0 0.0
   vertex 4215.0 1920.0 0.0
  endloop
 endfacet
 facet normal 0.0 0.0 -1.0
  outer loop
   vertex 4215.0 0.0 0.0
   vertex 4680.0 1920.0 0.0
   vertex 4680.0 0.0 0.0
  endloop
 endfacet
 facet normal 0.9914000000000001 0.0 -0.1305
  outer loop
   vertex 465.0 1920.0 0.0
   vertex 482.0371 0.0 129.4095
   vertex 465.0 0.0 0.0
  endloop
 endfacet
 facet normal 0.9914000000000001 0.0 -0.1305
  outer loop
   vertex 482.0371 0.0 129.4095
   vertex 465.0 1920.0 0.0
   vertex 482.0371 1920.0 129.4095
  endloop
 endfacet
 facet normal 0.9239 0.0 -0.38270000000000004
  outer loop
   vertex 482.0371 1920.0 129.4095
   vertex 531.9873 0.0 250.0
   vertex 482.0371 0.0 129.4095
  endloop
 endfacet
 facet normal 0.9239 0.0 -0.38270000000000004
  outer loop
   vertex 531.9873 0.0 250.0
   vertex 482.0371 1920.0 129.4095
   vertex 531.9873 1920.0 250.0
  endloop
 endfacet
 facet normal 0.7934 0.0 -0.6088
  outer loop
   vertex 531.9873 1920.0 250.0
   vertex 611.4466 0.0 353.5534
   vertex 531.9873 0.0 250.0
  endloop
 endfacet
 facet normal 0.7934 0.0 -0.6088
  outer loop
   vertex 611.4466 0.0 353.5534
   vertex 531.9873 1920.0 250.0
   vertex 611.4466 1920.0 353.5534
  endloop
 endfacet
 facet normal 0.6088 0.0 -0.7934
  outer loop
   vertex 715.0 1920.0 433.0127
   vertex 611.4466 0.0 353.5534
   vertex 611.4466 1920.0 353.5534
  endloop
 endfacet
 facet normal 0.6088 0.0 -0.7934
  outer loop
   vertex 611.4466 0.0 353.5534
   vertex 715.0 1920.0 433.0127
   vertex 715.0 0.0 433.0127
  endloop
 endfacet
 facet normal 0.38270000000000004 0.0 -0.9239
  outer loop
   vertex 835.5905 1920.0 482.96290000000005
   vertex 715.0 0.0 433.0127
   vertex 715.0 1920.0 433.0127
  endloop
 endfacet
 facet normal 0.38270000000000004 0.0 -0.9239
  outer loop
   vertex 715.0 0.0 433.0127
   vertex 835.5905 1920.0 482.96290000000005
   vertex 835.5905 0.0 482.96290000000005
  endloop
 endfacet
 facet normal 0.1305 0.0 -0.9914000000000001
  outer loop
   vertex 965.0 1920.0 500.0
   vertex 835.5905 0.0 482.96290000000005
   vertex 835.5905 1920.0 482.96290000000005
  endloop
 endfacet
 facet normal 0.1305 0.0 -0.9914000000000001
  outer loop
   vertex 835.5905 0.0 482.96290000000005
   vertex 965.0 1920.0 500.0
   vertex 965.0 0.0 500.0
  endloop
 endfacet
 facet normal -0.1305 0.0 -0.9914000000000001
  outer loop
   vertex 1094.4095 1920.0 482.96290000000005
   vertex 965.0 0.0 500.0
   vertex 965.0 1920.0 500.0
  endloop
 endfacet
 facet normal -0.1305 0.0 -0.9914000000000001
  outer loop
   vertex 965.0 0.0 500.0
   vertex 1094.4095 1920.0 482.96290000000005
   vertex 966.25 0.0 499.83540000000005
  endloop
 endfacet
 facet normal -0.1305 0.0 -0.9914000000000001
  outer loop
   vertex 966.25 0.0 499.83540000000005
   vertex 1094.4095 1920.0 482.96290000000005
   vertex 1094.4095 0.0 482.96290000000005
  endloop
 endfacet
 facet normal -0.38270000000000004 0.0 -0.9239
  outer loop
   vertex 1215.0 1920.0 433.0127
   vertex 1094.4095 0.0 482.96290000000005
   vertex 1094.4095 1920.0 482.96290000000005
  endloop
 endfacet
 facet normal -0.38270000000000004 0.0 -0.9239
  outer loop
   vertex 1094.4095 0.0 482.96290000000005
   vertex 1215.0 1920.0 433.0127
   vertex 1215.0 0.0 433.0127
  endloop
 endfacet
 facet normal -0.6088 0.0 -0.7934
  outer loop
   vertex 1318.5534 1920.0 353.5534
   vertex 1215.0 0.0 433.0127
   vertex 1215.0 1920.0 433.0127
  endloop
 endfacet
 facet normal -0.6088 0.0 -0.7934
  outer loop
   vertex 1215.0 0.0 433.0127
   vertex 1318.5534 1920.0 353.5534
   vertex 1318.5534 0.0 353.5534
  endloop
 endfacet
 facet normal -0.7934 0.0 -0.6088
  outer loop
   vertex 1318.5534 1920.0 353.5534
   vertex 1398.0127 0.0 250.0
   vertex 1318.5534 0.0 353.5534
  endloop
 endfacet
 facet normal -0.7934 0.0 -0.6088
  outer loop
   vertex 1398.0127 0.0 250.0
   vertex 1318.5534 1920.0 353.5534
   vertex 1398.0127 1920.0 250.0
  endloop
 endfacet
 facet normal -0.9239 0.0 -0.38270000000000004
  outer loop
   vertex 1398.0127 1920.0 250.0
   vertex 1447.9629 0.0 129.4095
   vertex 1398.0127 0.0 250.0
  endloop
 endfacet
 facet normal -0.9239 0.0 -0.38270000000000004
  outer loop
   vertex 1447.9629 0.0 129.4095
   vertex 1398.0127 1920.0 250.0
   vertex 1447.9629 1920.0 129.4095
  endloop
 endfacet
 facet normal -0.9914000000000001 0.0 -0.1305
  outer loop
   vertex 1447.9629 1920.0 129.4095
   vertex 1465.0 0.0 0.0
   vertex 1447.9629 0.0 129.4095
  endloop
 endfacet
 facet normal -0.9914000000000001 0.0 -0.1305
  outer loop
   vertex 1465.0 0.0 0.0
   vertex 1447.9629 1920.0 129.4095
   vertex 1465.0 1920.0 0.0
  endloop
 endfacet
 facet normal 0.0 0.0 -1.0
  outer loop
   vertex 3215.0 1920.0 0.0
   vertex 1465.0 0.0 0.0
   vertex 1465.0 1920.0 0.0
  endloop
 endfacet
 facet normal 0.0 0.0 -1.0
  outer loop
   vertex 1465.0 0.0 0.0
   vertex 3215.0 1920.0 0.0
   vertex 1467.5 0.0 0.0
  endloop
 endfacet
 facet normal 0.0 0.0 -1.0
  outer loop
   vertex 1467.5 0.0 0.0
   vertex 3215.0 1920.0 0.0
   vertex 2889.0547 0.0 0.0
  endloop
 endfacet
 facet normal 0.0 0.0 -1.0
  outer loop
   vertex 2889.0547 0.0 0.0
   vertex 3215.0 1920.0 0.0
   vertex 3215.0 0.0 0.0
  endloop
 endfacet
 facet normal 0.0 -1.0 0.0
  outer loop
   vertex 482.0371 0.0 129.4095
   vertex 0.0 0.0 0.0
   vertex 465.0 0.0 0.0
  endloop
 endfacet
 facet normal 0.0 -1.0 0.0
  outer loop
   vertex 0.0 0.0 0.0
   vertex 482.0371 0.0 129.4095
   vertex 0.0 0.0 917.8182
  endloop
 endfacet
 facet normal 0.0 -1.0 0.0
  outer loop
   vertex 0.0 0.0 917.8182
   vertex 482.0371 0.0 129.4095
   vertex 531.9873 0.0 250.0
  endloop
 endfacet
 facet normal 0.0 -1.0 0.0
  outer loop
   vertex 0.0 0.0 917.8182
   vertex 531.9873 0.0 250.0
   vertex 611.4466 0.0 353.5534
  endloop
 endfacet
 facet normal 0.0 -1.0 0.0
  outer loop
   vertex 0.0 0.0 917.8182
   vertex 611.4466 0.0 353.5534
   vertex 715.0 0.0 433.0127
  endloop
 endfacet
 facet normal 0.0 -1.0 0.0
  outer loop
   vertex 0.0 0.0 917.8182
   vertex 715.0 0.0 433.0127
   vertex 835.5905 0.0 482.96290000000005
  endloop
 endfacet
 facet normal 0.0 -1.0 0.0
  outer loop
   vertex 0.0 0.0 917.8182
   vertex 835.5905 0.0 482.96290000000005
   vertex 965.0 0.0 500.0
  endloop
 endfacet
 facet normal 0.0 -1.0 0.0
  outer loop
   vertex 0.0 0.0 917.8182
   vertex 965.0 0.0 500.0
   vertex 965.0 0.0 917.8182
  endloop
 endfacet
 facet normal 0.0 -1.0 0.0
  outer loop
   vertex 1450.4629 0.0 129.4095
   vertex 1465.0 0.0 0.0
   vertex 1467.5 0.0 0.0
  endloop
 endfacet
 facet normal 0.0 -1.0 0.0
  outer loop
   vertex 1465.0 0.0 0.0
   vertex 1450.4629 0.0 129.4095
   vertex 1447.9629 0.0 129.4095
  endloop
 endfacet
 facet normal 0.0 -1.0 0.0
  outer loop
   vertex 1447.9629 0.0 129.4095
   vertex 1450.4629 0.0 129.4095
   vertex 1400.5127 0.0 250.0
  endloop
 endfacet
 facet normal 0.0 -1.0 0.0
  outer loop
   vertex 1447.9629 0.0 129.4095
   vertex 1400.5127 0.0 250.0
   vertex 1398.0127 0.0 250.0
  endloop
 endfacet
 facet normal 0.0 -1.0 0.0
  outer loop
   vertex 1398.0127 0.0 250.0
   vertex 1400.5127 0.0 250.0
   vertex 1321.0534 0.0 353.5534
  endloop
 endfacet
 facet normal 0.0 -1.0 0.0
  outer loop
   vertex 1398.0127 0.0 250.0
   vertex 1321.0534 0.0 353.5534
   vertex 1318.5534 0.0 353.5534
  endloop
 endfacet
 facet normal 0.0 -1.0 0.0
  outer loop
   vertex 1318.5534 0.0 353.5534
   vertex 1321.0534 0.0 353.5534
   vertex 1217.5 0.0 433.0127
  endloop
 endfacet
 facet normal 0.0 -1.0 0.0
  outer loop
   vertex 1318.5534 0.0 353.5534
   vertex 1217.5 0.0 433.0127
   vertex 1215.0 0.0 433.0127
  endloop
 endfacet
 facet normal 0.0 -1.0 0.0
  outer loop
   vertex 1215.0 0.0 433.0127
   vertex 1217.5 0.0 433.0127
   vertex 1096.9095 0.0 482.96290000000005
  endloop
 endfacet
 facet normal 0.0 -1.0 0.0
  outer loop
   vertex 1215.0 0.0 433.0127
   vertex 1096.9095 0.0 482.96290000000005
   vertex 1094.4095 0.0 482.96290000000005
  endloop
 endfacet
 facet normal 0.0 -1.0 0.0
  outer loop
   vertex 1094.4095 0.0 482.96290000000005
   vertex 1096.9095 0.0 482.96290000000005
   vertex 967.5 0.0 500.0
  endloop
 endfacet
 facet normal 0.0 -1.0 0.0
  outer loop
   vertex 1094.4095 0.0 482.96290000000005
   vertex 967.5 0.0 500.0
   vertex 966.25 0.0 499.83540000000005
  endloop
 endfacet
 facet normal 0.0 -1.0 0.0
  outer loop
   vertex 4680.0 0.0 917.8182
   vertex 4215.0 0.0 0.0
   vertex 4680.0 0.0 0.0
  endloop
 endfacet
 facet normal 0.0 -1.0 0.0
  outer loop
   vertex 4215.0 0.0 0.0
   vertex 4680.0 0.0 917.8182
   vertex 4197.9629 0.0 129.4095
  endloop
 endfacet
 facet normal 0.0 -1.0 0.0
  outer loop
   vertex 4197.9629 0.0 129.4095
   vertex 4680.0 0.0 917.8182
   vertex 4148.0127 0.0 250.0
  endloop
 endfacet
 facet normal 0.0 -1.0 0.0
  outer loop
   vertex 4148.0127 0.0 250.0
   vertex 4680.0 0.0 917.8182
   vertex 4068.5534000000002 0.0 353.5534
  endloop
 endfacet
 facet normal 0.0 -1.0 0.0
  outer loop
   vertex 4068.5534000000002 0.0 353.5534
   vertex 4680.0 0.0 917.8182
   vertex 3965.0 0.0 433.0127
  endloop
 endfacet
 facet normal 0.0 -1.0 0.0
  outer loop
   vertex 3965.0 0.0 433.0127
   vertex 4680.0 0.0 917.8182
   vertex 3844.4095 0.0 482.96290000000005
  endloop
 endfacet
 facet normal 0.0 -1.0 0.0
  outer loop
   vertex 3844.4095 0.0 482.96290000000005
   vertex 4680.0 0.0 917.8182
   vertex 3715.0 0.0 500.0
  endloop
 endfacet
 facet normal 0.0 -1.0 0.0
  outer loop
   vertex 3215.0 0.0 0.0
   vertex 2889.0547 0.0 917.8182
   vertex 2889.0547 0.0 0.0
  endloop
 endfacet
 facet normal 0.0 -1.0 0.0
  outer loop
   vertex 2889.0547 0.0 917.8182
   vertex 3215.0 0.0 0.0
   vertex 3232.0371 0.0 129.4095
  endloop
 endfacet
 facet normal 0.0 -1.0 0.0
  outer loop
   vertex 2889.0547 0.0 917.8182
   vertex 3232.0371 0.0 129.4095
   vertex 3281.9873000000002 0.0 250.0
  endloop
 endfacet
 facet normal 0.0 -1.0 0.0
  outer loop
   vertex 2889.0547 0.0 917.8182
   vertex 3281.9873000000002 0.0 250.0
   vertex 3361.4466 0.0 353.5534
  endloop
 endfacet
 facet normal 0.0 -1.0 0.0
  outer loop
   vertex 2889.0547 0.0 917.8182
   vertex 3361.4466 0.0 353.5534
   vertex 3465.0 0.0 433.0127
  endloop
 endfacet
 facet normal 0.0 -1.0 0.0
  outer loop
   vertex 2889.0547 0.0 917.8182
   vertex 3465.0 0.0 433.0127
   vertex 3585.5905000000002 0.0 482.96290000000005
  endloop
 endfacet
 facet normal 0.0 -1.0 0.0
  outer loop
   vertex 2889.0547 0.0 917.8182
   vertex 3585.5905000000002 0.0 482.96290000000005
   vertex 3715.0 0.0 500.0
  endloop
 endfacet
 facet normal 0.0 -1.0 0.0
  outer loop
   vertex 2889.0547 0.0 917.8182
   vertex 3715.0 0.0 500.0
   vertex 4680.0 0.0 917.8182
  endloop
 endfacet
 facet normal 0.0 0.0 1.0
  outer loop
   vertex 2889.0547 0.0 917.8182
   vertex 2339.0547 1920.0 917.8182
   vertex 2339.0547 0.0 917.8182
  endloop
 endfacet
 facet normal 0.0 0.0 1.0
  outer loop
   vertex 2339.0547 1920.0 917.8182
   vertex 2889.0547 0.0 917.8182
   vertex 4680.0 1920.0 917.8182
  endloop
 endfacet
 facet normal 0.0 0.0 1.0
  outer loop
   vertex 4680.0 1920.0 917.8182
   vertex 2889.0547 0.0 917.8182
   vertex 4680.0 0.0 917.8182
  endloop
 endfacet
 facet normal 0.0 -1.0 0.0
  outer loop
   vertex 965.0 0.0 1620.0
   vertex 0.0 0.0 917.8182
   vertex 965.0 0.0 917.8182
  endloop
 endfacet
 facet normal 0.0 -1.0 0.0
  outer loop
   vertex 2889.0547 0.0 0.0
   vertex 1450.4629 0.0 129.4095
   vertex 1467.5 0.0 0.0
  endloop
 endfacet
 facet normal 0.0 -1.0 0.0
  outer loop
   vertex 1450.4629 0.0 129.4095
   vertex 2889.0547 0.0 0.0
   vertex 2889.0547 0.0 917.8182
  endloop
 endfacet
 facet normal 0.0 -1.0 0.0
  outer loop
   vertex 1450.4629 0.0 129.4095
   vertex 2889.0547 0.0 917.8182
   vertex 1400.5127 0.0 250.0
  endloop
 endfacet
 facet normal 0.0 -1.0 0.0
  outer loop
   vertex 1400.5127 0.0 250.0
   vertex 2889.0547 0.0 917.8182
   vertex 1321.0534 0.0 353.5534
  endloop
 endfacet
 facet normal 0.0 -1.0 0.0
  outer loop
   vertex 1321.0534 0.0 353.5534
   vertex 2889.0547 0.0 917.8182
   vertex 1217.5 0.0 433.0127
  endloop
 endfacet
 facet normal 0.0 -1.0 0.0
  outer loop
   vertex 1217.5 0.0 433.0127
   vertex 2889.0547 0.0 917.8182
   vertex 1096.9095 0.0 482.96290000000005
  endloop
 endfacet
 facet normal 0.0 -1.0 0.0
  outer loop
   vertex 1096.9095 0.0 482.96290000000005
   vertex 2889.0547 0.0 917.8182
   vertex 967.5 0.0 500.0
  endloop
 endfacet
 facet normal 0.0 -1.0 0.0
  outer loop
   vertex 967.5 0.0 500.0
   vertex 2889.0547 0.0 917.8182
   vertex 965.0 0.0 500.0
  endloop
 endfacet
 facet normal 0.0 -1.0 0.0
  outer loop
   vertex 965.0 0.0 500.0
   vertex 2889.0547 0.0 917.8182
   vertex 965.0 0.0 917.8182
  endloop
 endfacet
 facet normal 0.0 -1.0 0.0
  outer loop
   vertex 965.0 0.0 917.8182
   vertex 2889.0547 0.0 917.8182
   vertex 2339.0547 0.0 917.8182
  endloop
 endfacet
 facet normal 0.0 -1.0 0.0
  outer loop
   vertex 965.0 0.0 500.0
   vertex 966.25 0.0 499.83540000000005
   vertex 967.5 0.0 500.0
  endloop
 endfacet
 facet normal 0.0 -1.0 0.0
  outer loop
   vertex 2339.0547 0.0 1620.0
   vertex 965.0 0.0 917.8182
   vertex 2339.0547 0.0 917.8182
  endloop
 endfacet
 facet normal 0.0 -1.0 0.0
  outer loop
   vertex 965.0 0.0 917.8182
   vertex 2339.0547 0.0 1620.0
   vertex 965.0 0.0 1620.0
  endloop
 endfacet
 facet normal -0.5884 0.0 0.8086
  outer loop
   vertex 0.0 0.0 917.8182
   vertex 965.0 1920.0 1620.0
   vertex 0.0 1920.0 917.8182
  endloop
 endfacet
 facet normal -0.5884 0.0 0.8086
  outer loop
   vertex 965.0 1920.0 1620.0
   vertex 0.0 0.0 917.8182
   vertex 965.0 0.0 1620.0
  endloop
 endfacet
 facet normal 1.0 0.0 0.0
  outer loop
   vertex 2339.0547 1920.0 917.8182
   vertex 2339.0547 0.0 1620.0
   vertex 2339.0547 0.0 917.8182
  endloop
 endfacet
 facet normal 1.0 0.0 0.0
  outer loop
   vertex 2339.0547 0.0 1620.0
   vertex 2339.0547 1920.0 917.8182
   vertex 2339.0547 1920.0 1620.0
  endloop
 endfacet
endsolid macan.stl
